<?xml version="1.0" encoding="utf-8"?>
<!-- Generator: Adobe Illustrator 25.2.1, SVG Export Plug-In . SVG Version: 6.00 Build 0)  -->
<svg version="1.1" id="Capa_1" xmlns="http://www.w3.org/2000/svg" xmlns:xlink="http://www.w3.org/1999/xlink" x="0px" y="0px"
	 viewBox="0 0 60 60.1" style="enable-background:new 0 0 60 60.1;" xml:space="preserve" fill="#9CA3AF">
<path d="M59.2,54.9L48,43.8c8.5-10.6,7.7-26.2-2-35.9C40.9,2.8,34.2,0,27,0S13,2.8,7.9,7.9S0,19.7,0,27s2.8,14,7.9,19.1
	C13,51.1,19.7,54,27,54c6.1,0,12.1-2.1,16.8-5.9l11.1,11.1c0.6,0.6,1.3,0.9,2.1,0.9s1.6-0.3,2.1-0.9C60.3,58,60.3,56.1,59.2,54.9z
	 M48,27c0,5.6-2.2,10.9-6.2,14.8S32.6,48,27,48s-10.9-2.2-14.8-6.2S6,32.6,6,27s2.2-10.9,6.2-14.8S21.3,6,27,6
	c5.6,0,10.9,2.2,14.8,6.2S48,21.3,48,27z"/>
</svg>
