<?xml version="1.0" encoding="utf-8"?>
<!-- Generator: Adobe Illustrator 25.2.1, SVG Export Plug-In . SVG Version: 6.00 Build 0)  -->
<svg version="1.1" id="Capa_1" xmlns="http://www.w3.org/2000/svg" xmlns:xlink="http://www.w3.org/1999/xlink" x="0px" y="0px"
	 viewBox="0 0 18.1 18.6" style="enable-background:new 0 0 18.1 18.6;" xml:space="preserve" fill="#fff">
<g>
	<path d="M18.1,0.5v3.9c0,0.1-0.1,0.3-0.2,0.4l-6.6,5.8v5.4c0,0.2-0.1,0.3-0.2,0.4l-3.5,2.2c-0.1,0-0.2,0.1-0.3,0.1
		c-0.1,0-0.2,0-0.2-0.1c-0.2-0.1-0.3-0.3-0.2-0.4v-7.6L0.2,4.7C0.1,4.6,0,4.5,0,4.4V0.5C0,0.2,0.2,0,0.5,0h17.1
		C17.8,0,18.1,0.2,18.1,0.5z"/>
</g>
</svg>
