<?xml version="1.0" encoding="utf-8"?>
<!-- Generator: Adobe Illustrator 25.2.1, SVG Export Plug-In . SVG Version: 6.00 Build 0)  -->
<svg version="1.1" id="Capa_1" xmlns="http://www.w3.org/2000/svg" xmlns:xlink="http://www.w3.org/1999/xlink" x="0px" y="0px"
	 viewBox="0 0 87 74.2" style="enable-background:new 0 0 87 74.2;" xml:space="preserve">
<style type="text/css">
	.st0{fill:url(#SVGID_1_);}
</style>
<linearGradient id="SVGID_1_" gradientUnits="userSpaceOnUse" x1="-1.411347e-02" y1="37.05" x2="86.9127" y2="37.05">
	<stop  offset="0" style="stop-color:#FFFFFF"/>
	<stop  offset="0" style="stop-color:#00B7FF"/>
	<stop  offset="0.2128" style="stop-color:#01B3FF"/>
	<stop  offset="0.4407" style="stop-color:#06A6FF"/>
	<stop  offset="0.6757" style="stop-color:#0C90FF"/>
	<stop  offset="0.9141" style="stop-color:#1673FF"/>
	<stop  offset="1" style="stop-color:#1A66FF"/>
</linearGradient>
<path class="st0" d="M85.7,21.9c-0.1,0-0.2-0.1-0.3-0.1h-0.1c-0.1,0-0.2-0.1-0.3-0.1c-0.6-0.2-1.2-0.1-1.8,0.2
	c-1.4,0.7-2.6,1.1-3.7,1.1c-2.1,0-3.5-1.4-5.7-3.8c-2.5-2.7-5.7-6-11.1-6c-3.6,0-7.8,1.5-12.7,4.7C46.6,8.4,41.9,4.1,35.4,4.1
	c-1.8,0-3.6,0.3-5.2,0.6c-1.4,0.3-2.7,0.5-3.9,0.5l0,0c-1.6,0-3.4-0.3-5.2-3.9c-0.5-0.9-1.4-1.4-2.4-1.4c-0.6,0-1.2,0.3-1.6,0.8
	L17,0.8c-0.1,0.1-0.2,0.3-0.3,0.4l-0.1,0.1c0,0-4.6,9.2-4.6,9.3L0.1,47.1c-0.3,0.9,0,2,0.8,2.6c0.3,0.2,0.7,0.5,1.1,0.9
	c1.4,1.1,2.4,1.8,3.2,2.2c5.5,2.9,10.6,3.2,15.1,3.4c4.5,0.3,8.2,0.5,11.3,3.2l-0.1,1.2c-0.1,1,0.5,2,1.5,2.3l3.5,1.2
	c1,0.3,2.1-0.1,2.6-1l0.6-1c4.3-0.3,8.1,2.1,12.5,4.9c5.3,3.3,11.2,7.1,19.5,7.2l0,0c1,0,1.8-0.6,2.2-1.6l12.7-38.1
	c0.1-0.2,0.3-10.6,0.3-10.6C87,23,86.5,22.2,85.7,21.9z M51,23.2c4.9-3.4,8.9-5.1,11.8-5.1c3.3,0,5.2,2.1,7.4,4.5
	c2.3,2.5,5,5.3,9.3,5.3c0.3,0,0.6,0,0.9,0L70.3,59.1c-1,0.4-2,0.7-2.8,0.7l0,0c-2.1,0-3.5-1.4-5.7-3.8c-2.5-2.7-5.7-6.1-11.1-6.1
	c-2.8,0-5.9,0.9-9.4,2.8L51,23.2z M26.3,10.3L26.3,10.3c1.6,0,3.2-0.3,4.8-0.6c1.5-0.3,2.9-0.5,4.3-0.5c2.2,0,6.6,0,10.8,12.5
	l-9.7,29.5C33.2,44.1,29,41,23.3,41c-1.8,0-3.6,0.3-5.2,0.6c-1.4,0.3-2.7,0.5-3.9,0.5c-1.4,0-3.1-0.3-4.7-3L19.7,7.8
	C21.5,9.5,23.7,10.3,26.3,10.3z"/>
</svg>
